<svg enable-background="new 0 0 32 32" viewBox="0 0 32 32" xmlns="http://www.w3.org/2000/svg"><path d="m16 30.36c-.062 0-.125-.017-.181-.05l-12-7c-.111-.064-.179-.182-.179-.31v-14c0-.128.068-.247.179-.311l12-7c.111-.065.251-.065.362 0l12 7c.11.064.178.182.179.31 0 .127-.066.246-.177.311l-8.216 4.884c.253.551.393 1.162.393 1.806 0 2.404-1.956 4.36-4.36 4.36s-4.36-1.956-4.36-4.36 1.956-4.36 4.36-4.36c1.503 0 2.831.765 3.615 1.926l7.676-4.563-11.291-6.586-11.64 6.79v13.586l11.64 6.79 11.64-6.79v-8.793h.721v9c0 .128-.068.246-.179.311l-12 7c-.057.033-.12.049-.182.049zm0-18c-2.007 0-3.64 1.633-3.64 3.64s1.633 3.64 3.64 3.64 3.64-1.633 3.64-3.64-1.633-3.64-3.64-3.64z"/><path d="m0 0h32v32h-32z" fill="none"/></svg>